<?xml version="1.0" encoding="UTF-8" standalone="no"?>
<!-- Created with Inkscape (http://www.inkscape.org/) -->

<svg
   xmlns:dc="http://purl.org/dc/elements/1.1/"
   xmlns:cc="http://creativecommons.org/ns#"
   xmlns:rdf="http://www.w3.org/1999/02/22-rdf-syntax-ns#"
   xmlns:svg="http://www.w3.org/2000/svg"
   xmlns="http://www.w3.org/2000/svg"
   xmlns:sodipodi="http://sodipodi.sourceforge.net/DTD/sodipodi-0.dtd"
   xmlns:inkscape="http://www.inkscape.org/namespaces/inkscape"
   width="744.09448819"
   height="1052.3622047"
   id="svg3000"
   version="1.1"
   inkscape:version="0.48.4 r9939"
   inkscape:export-filename="/home/mendez/Documents/Examen1_lab/burbuja_explosiva.png"
   inkscape:export-xdpi="90"
   inkscape:export-ydpi="90"
   sodipodi:docname="New document 2">
  <defs
     id="defs3002" />
  <sodipodi:namedview
     id="base"
     pagecolor="#ffffff"
     bordercolor="#666666"
     borderopacity="1.0"
     inkscape:pageopacity="0.0"
     inkscape:pageshadow="2"
     inkscape:zoom="2.8"
     inkscape:cx="395.20305"
     inkscape:cy="594.89487"
     inkscape:document-units="px"
     inkscape:current-layer="layer1"
     showgrid="false"
     inkscape:window-width="1366"
     inkscape:window-height="702"
     inkscape:window-x="0"
     inkscape:window-y="27"
     inkscape:window-maximized="1" />
  <metadata
     id="metadata3005">
    <rdf:RDF>
      <cc:Work
         rdf:about="">
        <dc:format>image/svg+xml</dc:format>
        <dc:type
           rdf:resource="http://purl.org/dc/dcmitype/StillImage" />
        <dc:title></dc:title>
      </cc:Work>
    </rdf:RDF>
  </metadata>
  <g
     inkscape:label="Layer 1"
     inkscape:groupmode="layer"
     id="layer1">
    <path
       sodipodi:type="arc"
       style="fill:#00ffff"
       id="path2989"
       sodipodi:cx="189.82143"
       sodipodi:cy="352.54074"
       sodipodi:rx="31.964285"
       sodipodi:ry="29.821428"
       d="m 221.78571,352.54074 a 31.964285,29.821428 0 1 1 -63.92857,0 31.964285,29.821428 0 1 1 63.92857,0 z"
       transform="matrix(1,0,0,1.0778443,180.49335,63.232411)"
       inkscape:export-filename="/home/mendez/Documents/Examen1_lab/burbuja_congelada.png"
       inkscape:export-xdpi="90"
       inkscape:export-ydpi="90" />
    <path
       sodipodi:type="arc"
       style="fill:#000000"
       id="path2991"
       sodipodi:cx="271.42856"
       sodipodi:cy="396.11218"
       sodipodi:rx="8.9285717"
       sodipodi:ry="14.107142"
       d="m 280.35713,396.11218 a 8.9285717,14.107142 0 1 1 -17.85714,0 8.9285717,14.107142 0 1 1 17.85714,0 z"
       transform="matrix(0.99130902,-0.13155392,0.13155392,0.99130902,37.885076,74.647229)" />
    <path
       sodipodi:type="arc"
       style="fill:#ff0000"
       id="path2991-0"
       sodipodi:cx="271.42856"
       sodipodi:cy="396.11218"
       sodipodi:rx="8.9285717"
       sodipodi:ry="14.107142"
       d="m 280.35713,396.11218 a 8.9285717,14.107142 0 1 1 -17.85714,0 8.9285717,14.107142 0 1 1 17.85714,0 z"
       transform="matrix(0.99273937,0.12028533,-0.12028533,0.99273937,160.11059,5.9028516)" />
    <path
       style="fill:#000000"
       id="path3021"
       d="m 352.48185,460.94316 c 5.92352,-1.13806 11.77022,-2.37725 17.61919,-3.60079 5.11227,-1.12181 10.37728,-2.14048 15.26879,-3.44271 1.06849,-0.2761 2.01578,-0.61199 3.01835,-0.91954 0.33245,-0.10298 0.69681,-0.18734 1.06446,-0.26586 0.54869,-0.11928 1.09267,-0.24303 1.63153,-0.37074 0.11849,-0.0373 0.60744,-0.12613 0.009,-0.0201 0,0 2.89639,1.85644 2.89639,1.85644 l 0,0 c -0.21836,0.0658 -0.37419,0.11428 -0.61186,0.15771 -0.54868,0.11727 -1.09321,0.23899 -1.63123,0.3658 -0.31927,0.0778 -0.64554,0.15149 -0.9483,0.24023 -1.03313,0.3018 -2.08903,0.59188 -3.17643,0.86115 -5.03444,1.22859 -10.38941,2.15987 -15.53203,3.29272 -5.82401,1.22983 -11.64206,2.47019 -17.32456,3.8286 0,0 -2.28303,-1.98298 -2.28303,-1.98298 z"
       inkscape:connector-curvature="0" />
    <path
       style="fill:#000000"
       id="path3021-0"
       d="m 351.50461,451.81168 c 5.86185,1.42199 11.69575,2.72008 17.52523,4.03336 5.11696,1.10021 10.3301,2.35763 15.32106,3.20209 1.08674,0.19206 2.08801,0.27945 3.12782,0.41555 0.34522,0.0442 0.71174,0.11863 1.07884,0.19971 0.54872,0.11909 1.09502,0.23218 1.6383,0.33954 0.12328,0.0152 0.60503,0.13724 0.0166,-0.0145 0,0 1.86519,2.89077 1.86519,2.89077 l 0,0 c -0.226,-0.0307 -0.38789,-0.0513 -0.62216,-0.11034 -0.54788,-0.12093 -1.09384,-0.23609 -1.63598,-0.34392 -0.32277,-0.0617 -0.65021,-0.12998 -0.96251,-0.17484 -1.06523,-0.15401 -2.14631,-0.32813 -3.24744,-0.53426 -5.09044,-0.97076 -10.34918,-2.34502 -15.49834,-3.44777 -5.80938,-1.2972 -11.6177,-2.58235 -17.35166,-3.70385 0,0 -1.25461,-2.75143 -1.25461,-2.75143 z"
       inkscape:connector-curvature="0" />
    <path
       style="fill:#ff0000"
       id="path3060"
       d="m 356.41055,455.37861 c 5.11085,0.39501 10.28445,0.45698 15.43719,0.44301 3.88754,-0.0232 7.71857,-0.35573 11.5414,-0.69841 2.37118,-0.20025 0.69332,0.054 0.42484,3.10863 -0.003,0.0308 -0.1139,0.006 -0.16455,0.0192 -0.0141,0.004 -0.0752,0.069 -0.08,0.0739 -0.62474,1.10197 -1.41408,-2.80999 -0.0173,-3.04044 0.20444,-0.0337 0.72606,-0.0776 0.89214,-0.0931 0.7536,-0.12195 1.40754,-0.36392 2.11923,-0.53788 0.37049,-0.10277 0.78457,-0.0239 0.96849,0.17497 0,0 -0.77948,3.10308 -0.77948,3.10308 l 0,0 c 0.0471,-0.20776 0.37646,-0.22903 0.0416,-0.16389 -0.74389,0.17067 -1.45206,0.3914 -2.23746,0.5048 -0.0478,0.006 -1.35474,0.19448 -1.36256,0.15666 -0.39869,-1.92799 -1.73346,-2.60399 -0.006,-3.22722 2.33064,-0.65185 2.62719,3.3173 0.25819,2.98712 -1.09641,0.0251 -2.18761,0.089 -3.28252,0.13027 -2.76816,0.10433 -5.54021,0.1758 -8.31387,0.21695 -5.17332,0.0125 -10.34673,-0.0212 -15.51967,-0.0495 0,0 0.0802,-3.1082 0.0802,-3.1082 z"
       inkscape:connector-curvature="0" />
  </g>
</svg>
